<svg xmlns="http://www.w3.org/2000/svg" width="22" height="22" viewBox="0 0 22 22">
  <defs>
    <style>
      .cls-1 {
        fill-rule: evenodd;
      }
    </style>
  </defs>
  <path id="Forma_1" data-name="Forma 1" class="cls-1" d="M1275.53,1283.48a11.015,11.015,0,0,0-4.01-4.01,11.1,11.1,0,0,0-11.04,0,11.015,11.015,0,0,0-4.01,4.01,11.1,11.1,0,0,0,0,11.04,11.015,11.015,0,0,0,4.01,4.01,11.1,11.1,0,0,0,11.04,0,11.015,11.015,0,0,0,4.01-4.01A11.1,11.1,0,0,0,1275.53,1283.48Zm-2.78,9.43a7.889,7.889,0,0,1-2.84,2.84,7.87,7.87,0,0,1-7.82,0,7.889,7.889,0,0,1-2.84-2.84,7.87,7.87,0,0,1,0-7.82,7.889,7.889,0,0,1,2.84-2.84,7.87,7.87,0,0,1,7.82,0,7.889,7.889,0,0,1,2.84,2.84A7.87,7.87,0,0,1,1272.75,1292.91Zm-5.37-9.41h-0.92a0.43,0.43,0,0,0-.33.13,0.416,0.416,0,0,0-.13.33V1289h-3.21a0.445,0.445,0,0,0-.33.13,0.452,0.452,0,0,0-.13.33v0.92a0.444,0.444,0,0,0,.46.45h4.59a0.444,0.444,0,0,0,.45-0.45v-6.42a0.416,0.416,0,0,0-.13-0.33A0.408,0.408,0,0,0,1267.38,1283.5Z" transform="translate(-1255 -1278)"/>
</svg>
