<svg xmlns="http://www.w3.org/2000/svg" width="18" height="16.97" viewBox="0 0 18 16.97">
  <defs>
    <style>
      .cls-1 {
        fill-rule: evenodd;
      }
    </style>
  </defs>
  <path id="Forma_1_копия_4" data-name="Forma 1 копия 4" class="cls-1" d="M1274.59,1084.45l-2.78-2.63a1.5,1.5,0,0,0-2.04.04l-1.4,1.32c-0.09-.04-0.18-0.09-0.27-0.14a13.891,13.891,0,0,1-3.37-2.31,13.167,13.167,0,0,1-2.44-3.2c-0.05-.08-0.1-0.17-0.15-0.25l0.94-.89,0.46-.44a1.319,1.319,0,0,0,.04-1.93l-2.78-2.63a1.51,1.51,0,0,0-2.05.03l-0.78.75,0.02,0.02a4.006,4.006,0,0,0-.64,1.08,4.105,4.105,0,0,0-.29,1.09c-0.37,2.88,1.02,5.51,4.8,9.09,5.21,4.94,9.41,4.56,9.59,4.54a4.658,4.658,0,0,0,1.16-.27,4.448,4.448,0,0,0,1.14-.61l0.01,0.01,0.8-.73A1.323,1.323,0,0,0,1274.59,1084.45Z" transform="translate(-1257 -1071.03)"/>
</svg>
